<svg xmlns="http://www.w3.org/2000/svg" viewBox="0 0 154.38 195.33"><path d="M78 .59L77.19.5.5 8.54v140.57l76.69 45.63 76.69-45.63V8.54L78 .59zm65.85 142.82l-66.66 39.66-66.66-39.66V85.79L76.9 125.3l.11 7.16-45.53-27.1-.07 6.95 45.71 27.47.11 7.35-45.7-27.19-.07 6.95 45.71 27.47 46.15-27.62v-6.98l-.06.03V97.1l20.57-12.28v58.59zm-.05-66.06l-18.24 10.74-8.42 4.96-40.15-23.88-.07 6.95 34.32 20.41-.3.18-.74.44-4.88 2.87-28.33-16.86-.07 6.95 22.36 13.3-5.28 3.53-.13.08-16.89-9.95-.07 6.95 11.08 6.53-11.29 6.78-66.02-39.27 66.14-39.75v.01l66.98 39.03zm.05-6.99L76.83 30.85v-.01h-.02v.01L10.53 70.31V17.58l66.66-6.99 66.66 6.99v52.78z" stroke="#231f20" stroke-miterlimit="10"/></svg>