<svg xmlns="http://www.w3.org/2000/svg" viewBox="0 0 186.64 96.43" width="188" height="96"><path fill="#81B3D3" d="M186.64 0H0l80.49 90.47c7.06 7.94 18.61 7.94 25.67 0L186.64 0z"/><path fill="#23A9E1" d="M43.24.72l49.52 58.35 49.33-58z"/><path fill="#FFF" d="M122.02 17.33c-5.06.03-10.12.06-15.19.08 6.01-6.93 8.7-6.18 15.19-.08zm-41.17 5.36h26.68c-1.99-1.23-6.71-7.06-9.31-4.89-.21.18-7.5-8.85-12.3-4.5-4.18 3.8-6.12-.5-10.86 2.51-5.39 3.57 3.13 5.67 5.79 6.88z"/><path fill="#491213" d="M93.1.02H42.18v22.46L92.76 84l.34-.42 50.75-60.39V.02H93.1zM54.9 1.79h5.46v17.19L54.9 12.5V1.79zm-.78 9.77l-4.97-5.9V1.79h4.97v9.77zm19.3-2.7L67.68 1.8h5.74v7.06zm-6.64 3.82l-5.6-10.89h5.6v10.89zm-5.63-9.24l5.52 10.74c-2.75 2.14-4.69 4.01-5.52 4.85V3.44zm6.41-.55l5.61 6.9c-1.12.65-2.16 1.3-3.1 1.93-.89.6-1.72 1.2-2.51 1.78V2.89zm6.64-.2l4.76 4.22c-1.7.7-3.29 1.48-4.76 2.29V2.69zm5.58 3.9L74.37 1.8h5.96v4.58c-.18.07-.37.13-.55.21zm19.12-4.8h4.99L98.9 4.23V1.79zm-5.79 0h4.44l-4.44 2.06V1.79zm-.94 1.97L87.93 1.8h4.24v1.96zm-5.49.52l-5.09-2.49h5.09v2.49zm-5.57-1.84l4.72 2.31c-1.63.35-3.21.81-4.72 1.35V2.44zm6.35 0l3.46 1.6c-1.17.07-2.33.2-3.46.39V2.44zm10.42.06v1.94c-1.1-.18-2.22-.32-3.36-.39l3.36-1.55zm6.48-.06v3.7c-1.53-.54-3.13-1.01-4.78-1.37l4.78-2.33zm.78-.65h5.94l-5.43 4.82c-.17-.06-.34-.13-.51-.19V1.79zm13.55 0h5.6l-5.6 10.88V1.79zm-6.64 0h5.74l-5.74 7.01V1.79zm-.78.89v6.53c-1.49-.8-3.1-1.57-4.81-2.27l4.81-4.26zm6.64.2v10.5a58.58 58.58 0 00-2.26-1.56c-1.02-.68-2.16-1.37-3.38-2.06l5.64-6.88zm6.42.56v15.24c-1.05-1-2.94-2.7-5.48-4.6l5.48-10.64zm.78 16V1.79h5.46V13.2l-5.39 6.31-.07-.07zm6.24-17.65h4.97v4.67l-4.97 5.82V1.79zm-82.99 0v2.94l-2.47-2.94h2.47zm12.89 18.25l.14.13c.04-.04 3.58-3.87 9.21-7.65 5.19-3.48 13.24-7.62 22.16-7.57 8.9.04 17.06 4.19 22.35 7.67 5.65 3.71 9.28 7.46 9.45 7.63l-3.88 4.54c-6.91.95-11.86 6.08-18.6 4.96-3.4-.56-3.5-2.51-4.47-4.46-.75-1.49-1.94-1.3-3.49-1.91-1.44-.57-2.28-1.74-5.16-1.06-2.53.59-2.81 4.52-5.95 4.29-1.69-.12-1.81-2.5-4.24-5.54-6.3-7.57-12.16-6.52-16.25.48l30.25 35.94-31.52-37.45zm75.86-14.5V1.79h3.2l-3.2 3.75z"/><path fill="#23A9E1" d="M88.75 70.92l4.01-6.5 4.01 6.5-4.01 6.51z"/><path fill="#FFF" d="M65.46 32.27c.51.62.89 1.28.81 2.12-.06.58-.94 1.55-.27 1.85.75-.94 1.5-1.89 2.24-2.83-.6-.15-5.37-5.85-5.44-6.47-1.05.58-2.11 1.16-3.16 1.73.16.66 1.29.01 1.85.05.83.06 1.42.56 1.95 1.15-1.73 1.45-5.93 5.02-6.37 5.09-.23.04-1.09-.6-1.1-.06-.01.26.85 1.01 1.01 1.21l2.23 2.65c.62-.28-.11-.73.21-1.24.23-.39 4.9-4.28 6.04-5.25zm-5.27-6.98c.44-.1.62.43.96-.06-.82-.97-1.63-1.94-2.45-2.92-.37-.44-.84-.92-.71.02.09.63-6.11 5.66-6.49 5.82-.48.2-.76-.42-1.11.1l2.19 2.61c.25.29.48.61.75.88.34.34.21-.67.22-.58-.09-.51.53-.95.86-1.23 1.55-1.37 5.4-4.59 5.78-4.64zm-8.77-.92c-1.77.52-3.65-.16-4.21-2.04-.54-1.84.61-3.76 2.07-4.8 1.44-1.03 3.59-.97 4.37.84.35.8.16 1.71-.09 2.5-.16.51-.6 1 .06 1.29.86-1.1 1.72-2.19 2.58-3.29-1.05-.63-1.52-1.68-2.3-2.6-.88-1.07-2.06-2.08-3.48-2.28-2.87-.41-5.57 2.56-5.79 5.24-.14 1.46.37 2.85 1.25 4 .75.99 1.87 1.62 2.43 2.75.26.09 2.71-1.03 3.29-1.26-.06-.1-.1-.26-.18-.35-.76.22 0 0 0 0zm39.3 36.41c-1.15-.77-4.03-4.69-4.57-5.34l-.33-.39c-.01-.01-.28.22-.25.19-.17.14.13.57-.05.86-.79 1.24-5.76 4.98-6.02 5.16-.56.38-1.16-.16-1.49.32.72.85 2.78 3.54 3.02 3.58.48.08.15-.82.21-1 .12-.37 2.63-2.45 3.55-3.21.34-.28.69.43.89.72.33.48.47 1 .3 1.57-.12.37-.72.92-.25 1.17.62-.72 2.36-2.75 2.61-3.05.25-.29-.57-.04-.47-.09-.37.19-.72.24-1.06-.03-.1-.07-1.09-1.08-.99-1.17.43-.36.96-.96 1.52-1.1.86-.21 1.58 1.52 1.71 2.13.12.58.1 1.19-.08 1.75-.12.39-.49.7.02.93.71-.97 1.42-1.95 2.13-2.92a.607.607 0 01-.4-.08c-.13-.09.14.07 0 0zM80.5 56.65c2.21-1.86 2.48-5.05.77-7.34-1.87-2.49-5.37-3.1-7.8-1.05-2.2 1.85-2.49 5.05-.76 7.32 1.98 2.62 5.19 2.92 7.79 1.07 1.15-.98-.1.07 0 0zm-.47-4.76c-.65 1.51-2.2 3.06-3.73 3.67-1.82.71-3.1-.83-2.36-2.55.65-1.52 2.2-3.06 3.74-3.67 1.85-.73 3.06.85 2.35 2.55-.38.89.07-.17 0 0zm-5.98-9.85c.47.06.93.55 1.27.04-.74-.88-1.48-1.76-2.23-2.64-.59.27.05.55-.19.97-.24.43-2.56.78-3.18.89.22-.64.89-2.62 1.16-2.84.54-.44.88.43 1.28-.14l-2.74-3.25c-.31-.37-.56-1.03-.98-.68.04-.03.01 1.47-.09 1.73-.09.24-.94 3.64-1.93 4.47-.49.41-2.24 1.93-2.7 2.1-.54.19-.83-.6-1.22-.04.83.99 1.66 1.97 2.49 2.96.13.15.6.86.77.89.52.09.06-.89.11-1.09.15-.43 2.5-2.72 3.5-2.86 1.46-.19 3.2-.69 4.68-.51.34.04-.35-.05 0 0z"/><path fill="#DC6243" d="M67.79 22.87c-4.04-.17-2.35-3.95.39-4.81 2.61-.81 8.09 1.72 9.84 3.4-2.78.85-6.39.73-9.45.87-.21-3.11-.94-2.02-.78.54zm9.51 12.55c-8.62-.07-2.79-13.32.14-12.52 3.37 1.08 2.99 12.62-.14 12.52zm6.1-4.33c-.84 2.5-2.36 2.97-2.19-.07.19-3.5 2.48-2.66 4.93-4 2.04-1.12 3.14-5.21 6.64-2.77 1.56 1.09 3.35.18 3.85 1.83C96.6 26 92.08 36.4 94.6 36.4c-4.96 0-2.77-5.92-.87-9.9-1.85.88-4.84 6.69-2.38 7.64-1.28 1.69-5.19 3.94-7.23 2.3-1.56-1.25-.7-3.33-.72-5.35zm4.11 9.61c-3.49 1.05-8.12-1.21-2.51-2.34 3.48-.71 7.18.77 2.51 2.34.14-.05-.13.04 0 0zm4.37-.14c-.74-1.66.56-3.64 2.68-2.2 1.84 1.25-.86 3.1-2.68 2.2zm-2.95 4.66c-2.41-.75-10.54-.56-5.22-2.76 1.64-.68 10.16.1 5.22 2.76zm10.43 3.32c-1.44-1.23-2.89-1.29-4.23 0-1.79-3.29-8.32-2.19-11.37-2.65 1.65 4.03 14.87 4.78 15.6 2.65zm-1.9 2.42c-3.15-.15-6.67-.56-9.65.08 1.86.47 6.4 1.79 2.17 2.92 1.51 2.17 3.97 2.03 5.58.13-.66-.32-1.01-.72-1.55-1.06 1.68-.3 3.24-1.26 3.45-2.07zm3.6-3.87c-5.29-3.11-3.95-5.43.35-7.59 2.25-1.13 7.32-5.21 9.45-3.85-3.27 3.81-6.54 7.62-9.8 11.44z"/><path fill="#F49774" d="M97.29 39.81c-4.48-4.6 6.69-4.18 8.49-5.8 1.31.44 10.77-8.28 13.07-7.74-1.66 1.94-5.22 8.14-7.78 8.14-1.96 0-3.95-.29-5.47 1.11-2.22 2.04-5.91 3.09-8.31 4.29z"/><path fill="#F4B1A4" d="M98.76 34.18c-2.45 1.32-4.77-3.91-.54-3.4 2.81.34 5.66-.24 8.35.23-1.93 2.29-4.71 3.55-7.81 3.17z"/><g fill="#FFF"><path d="M111.39 52.47c.19.65.3 1.33.21 2.01-.11.87-.98 2.92-2.17 2.34-1.17-.57-2.19-1.73-3.19-2.55.8-.94 1.51-1.75 2.85-1.29.37.12.69-.04.3-.26-.41-.23-3.11-1.96-3.26-1.8-.27.31.53.87.22 1.47-.23.45-.61.83-.93 1.22-.72-.61-1.92-1.25-1.06-2.26.54-.66 1.25-1.17 2.1-1.34.57-.11 1.84.39 2.01-.22-1.09-.52-2.17-1.04-3.26-1.56.18.8-3.35 4.52-4.13 5.46-.11.14-.66.61-.66.8-.01.43.62.1.66.08.49-.18 6.82 5.11 6.97 5.47.1.28-.22.57-.03.73-.01-.01.23.22.25.18.39-.47 4.52-5.97 5.37-6.22-.79-1.21-1.59-2.43-2.37-3.65-.58.25-.01.94.12 1.39zm-6.16 6.7c-2.08-1.34-5.6 1.28-6.13 1.53-1.04.49-1.79-.54-1.25-1.5.47-.83 1.39-1.23 2.31-1.29.28-.02 1.35.2 1.46.03.13-.2.23-.22.04-.34-.86-.58-1.71-1.16-2.57-1.73-.18 1.05-1.38 1.73-2.08 2.44-.82.85-1.52 1.93-1.52 3.16 0 1.13.68 2.14 1.68 2.66 1.14.59 2.32.12 3.32-.51.63-.39 1.25-.86 1.92-1.17 1-.47 2.3-.06 1.95 1.27-.28 1.07-1.35 2.06-2.41 2.34-.62.16-1.27.11-1.87-.09-.43-.14-.99-.73-1.23-.11 1.16.85 2.32 1.69 3.48 2.54.1-.76.52-1.09 1.09-1.56.74-.64 1.44-1.32 1.99-2.13 1.18-1.72 1.56-4.09-.18-5.54z"/><path d="M105.23 59.17c.92.6-.59-.49 0 0zm29.23-37.31zm7.46-2.21c-.73.73-8.42-2.34-8.98-2.76-.29-.12-.3-1.32-.71-.83-.4.49-.81.98-1.22 1.46-.42.51-.84 1.01-1.26 1.51-.26.31-.54.46-.04.72.84-.42 5.42 7.35 5.01 8.46-.72.38-6.92-5.06-7.08-5.42-.05-.15.27-1.02-.21-.94-.23.04-.74.9-.89 1.07l-.89 1.07c.33.48.52-.02.96.04.38.08 1.84 1.33 2.24 1.66-.72.03-2.68.13-2.93.11-.9.11-.42-.66-1.01-.93l-2.28 2.76c-.44.54-.88 1.07-1.33 1.61-.05.07-.05.03.05.11.33.27.1.17.57.01.51-.18 6.56 4.93 6.78 5.19.38.45-.15.98.41 1.22.6-.73 1.2-1.46 1.8-2.18.09-.11.14-.1.02-.2-.43-.35-.48.21-1 .15-.53-.09-4.39-3.37-5.89-4.61 1.82-.07 7.29-.27 8.2-.3.3-.01 1.14.9 1.07 1.22-.08.38-.46.56.05.79.48-.58.99-1.15 1.46-1.73l.23-.28c.08-.05.15-.15.21-.26l.17-.21c.42-.48 1.8-2.01 1.63-2.15-.46-.4-.68.47-1.3-.05-.35-.25-1.22-1.79-1.44-2.16-.26-.45.61-.9.96-1.12.78-.48 3.25-1.18 3.48.35.04.26-.27.55-.08.7.04.04.2.24.27.16.16-.2 2.36-2.84 3.3-3.97-.1-.09-.21-.23-.33-.27zm-7.37 2.15c.07-.05.15-.1 0 0-.05.03-.07.05-.08.05.01 0 .04-.02.08-.05-.35.22-.67.48-.96.76-.52-.9-1.04-1.8-1.56-2.69 1.18.49 2.35.98 3.52 1.48-.36.1-.7.26-1 .45zm-9.75 11.21c-2.38-1.98-5.63-1.4-7.59.83-1.9 2.31-1.71 5.66.61 7.62 2.34 1.93 5.67 1.44 7.57-.85 1.9-2.3 1.77-5.67-.59-7.6zm-.28 6.62l-.03.03c-1.23 1.29-3.36.1-4.5-.73-1.15-.83-3.11-2.57-1.86-4.1 1.06-1.29 3.12-.23 4.19.48 1.2.8 3.41 2.6 2.28 4.22.07-.1.13-.16-.08.1z"/><path d="M124.8 33.01c1.17.96-.25-.21 0 0zm-.31 6.64l.03-.03c.03-.04.06-.07.08-.11-.05.07-.11.14-.11.14zm-6.28 2.49c.11.09.27.22-.06-.06-2.83-2.13-6.19-1.5-8.4 1.16-.99 1.19-1.98 2.38-2.96 3.57.35.51.76-.12 1.27.18.44.25 6.24 5.1 6.34 5.37.16.46-.25.55.14.88.17.14 4.54-5.25 4.93-6.19.69-1.78.14-3.7-1.26-4.91zm-1.32 6.75c-.24.3-.04.05-.67.65-.31.29-6.44-4.68-6.19-4.94.83-.92 2.57-1.56 3.58-1.3 2.19.56 5.21 3.26 3.28 5.59z"/></g></svg>