<svg version="1.1" id="Layer_1" xmlns="http://www.w3.org/2000/svg" x="0" y="0" viewBox="0 0 459.75 350.08" xml:space="preserve"><style>.st2{fill:#fff}</style><path d="M165.42 70l-.2.23c-1.35 1.47-3.02 2.19-4.52 2.22l2.82-4.86c1.81-3.14.14-6.1-2.68-6.1-2.3 0-4.09.92-5.82 3.92l-1.47 2.56-1.23 2.1-.15.18c-2.16 2.51-4.26 4.49-5.59 4.49-.66 0-1.04-.46-.35-1.64l6.42-11.2h2.45l.86-1.44h-2.48l2.82-4.89h-2.99l-2.82 4.9h-2.71l-.86 1.44h2.73l-6.02 10.42c-1.27 2.22-.37 4.26 2.04 4.26 1.74 0 3.66-1.31 5.51-3.08-.01 3.82 5.3 4.56 8.54.46h.66c1.78 0 4.61-1.09 6.13-2.91-.17-.43-.68-.89-1.09-1.06zm-6.39.2h-.15c-.98 0-1.76.81-1.76 1.79 0 .37.12.72.29 1.01l-.03.06c-1.41 2.42-4.84 1.96-3.05-1.15l2.27-3.94 1.44-2.45c2.1-3.57 4.98-2.16 3.17.95l-2.18 3.73zm47.85-.2l-.2.23c-2.16 2.51-4.92 4.49-7.02 4.49-1.84 0-2.94-1.15-1.55-3.57l.29-.52c1.93.81 5.56.43 7.8-3.46l.43-.75c1.61-2.76.06-4.84-2.39-4.84-2.42 0-4.35 1.27-5.61 3.46l-2.91 4.98-.17.2c-2.16 2.5-4.26 4.49-5.59 4.49-.66 0-1.04-.46-.35-1.64l4.32-7.57c1.29-2.27.06-3.92-1.61-3.92-1.3 0-2.68.72-4.18 2.27l4.78-8.32h-2.99l-8.35 14.49-.17.19c-2.16 2.51-4.26 4.49-5.59 4.49-.66 0-1.04-.46-.35-1.64l6.42-11.2h2.45l.86-1.44h-2.48l2.82-4.89h-2.99l-2.82 4.9h-2.71l-.86 1.44h2.73l-6.02 10.42c-1.27 2.22-.37 4.26 2.04 4.26 1.21 0 2.52-.64 3.82-1.63l-.77 1.34h3.02l4.55-7.92c4.61-5.79 6.65-5.04 5.35-2.82l-3.89 6.77c-1.27 2.22-.37 4.26 2.05 4.26 1.78 0 3.76-1.38 5.65-3.22.14 1.86 1.65 3.22 4.05 3.22 3.4 0 6.77-2.65 9.24-5.53-.18-.39-.7-.85-1.1-1.02zm-5.7-4.2c1.73-2.96 4.78-2.48 3 .63l-.43.75c-1.44 2.45-3.37 2.39-4.49 1.99l1.92-3.37zM316.05 70l-.2.23c-1.1 1.29-2.42 2.45-3.6 3.25.95-2.85.75-7.23 2.59-11.06l-2.25-1.21c-1.24 1.7-3.94 5.62-6.65 8.78l-.2.23c-2.16 2.51-4.26 4.49-5.59 4.49-.66 0-1.04-.46-.34-1.64l6.39-11.2h-2.99l-5.33 9.3c-2.27 2.07-4.03 3.22-4.61 2.96-.75-.31 0-1.44.38-2.07l5.84-10.19h-3L291.8 70l-.2.23c-1.35 1.47-3.02 2.19-4.52 2.22l2.82-4.87c1.81-3.14.15-6.1-2.68-6.1-2.3 0-4.09.92-5.82 3.92l-1.47 2.56-1.23 2.1-.15.18c-2.16 2.51-4.92 4.49-7.02 4.49-1.84 0-2.94-1.15-1.56-3.57l.29-.52c1.93.81 5.56.43 7.8-3.45l.43-.75c1.61-2.76.06-4.84-2.39-4.84-2.42 0-4.35 1.27-5.62 3.45l-2.9 4.98-.17.2c-2.48 2.85-4.61 4.69-6.97 5.7l6.71-11.46h-1.76c0-1.24-1.27-2.88-3.14-2.88-1.61 0-3.86 1.27-5.13 3.46L254.27 70h-.01l-.2.23c-2.16 2.5-4.26 4.49-5.59 4.49-.66 0-1.04-.46-.35-1.64l2.99-5.24c1.04-1.81.55-2.88-.43-4.06l-1.67-2.02c-.43-.55-.43-1.15.17-1.73l-1.55-1.7c-1.7 1.52-1.84 3.23-.78 4.61l.26.35c-1.32 1.87-3.11 4.4-5.07 6.71l-.2.23c-1.35 1.47-3.02 2.19-4.52 2.22l2.82-4.87c1.81-3.14.14-6.1-2.68-6.1-2.3 0-4.09.92-5.81 3.92l-1.47 2.56-1.23 2.1-.15.17c-2.48 2.85-4.61 4.69-6.97 5.7l6.71-11.46h-1.76c0-1.24-1.27-2.88-3.14-2.88-1.61 0-3.86 1.27-5.13 3.46l-4.2 7.26c-1.27 2.22-.38 4.26 2.04 4.26.84 0 1.84-.38 2.85-1.01l-.84 1.41c-4.03 1.24-6.56 2.88-6.56 5.13 0 2.88 4.4 3.48 6.56-.2l2.27-3.95c2.4-.75 4.74-2.15 7.18-4.48-.02 3.83 5.29 4.58 8.54.48h.66c1.79 0 4.61-1.09 6.13-2.91 1.44-1.67 2.56-3.17 4.95-6.42l.4.49c.37.49.52 1.09.17 1.7l-3.17 5.5c-1.27 2.22-.38 4.26 2.04 4.26 1.52 0 3.18-1 4.8-2.43-.05 1.39.88 2.43 2.6 2.43.83 0 1.84-.38 2.85-1.01l-.78 1.41c-4.03 1.24-6.56 2.88-6.56 5.13 0 2.88 4.4 3.48 6.56-.2l2.27-3.94c2.44-.76 4.83-2.21 7.32-4.62.13 1.88 1.65 3.24 4.06 3.24 2.44 0 4.86-1.37 6.95-3.2-.12 3.92 5.27 4.72 8.54.58h.66c.94 0 2.16-.31 3.33-.86-.81 2.08-.06 3.48 1.65 3.48 1.64 0 3.48-1.5 4.92-2.88-.29 1.61.66 2.88 2.56 2.88 2.48 0 5.33-2.65 7.8-5.53 1.7-1.96 3.2-4.06 4.26-5.47-1.18 3.11-.55 8.69-3.4 8.69-1.01 0-1.41-1.09-1.41-1.09l-1.87.98s.55 2.42 3.28 2.42c.29 0 .55-.03.83-.06.03 0 .06-.03.09-.03 3.05-.4 6.07-2.82 8.32-5.44-.16-.47-.68-.93-1.11-1.05zm-42.99-4.2c1.73-2.96 4.78-2.48 2.99.63l-.43.75c-1.44 2.45-3.37 2.39-4.49 1.99l1.93-3.37zm-57.17 15.6c-.63 1.12-1.64.95-1.64.14 0-.78.72-1.67 2.99-2.56l-1.35 2.42zm1.38-6.68c-.66 0-1.04-.46-.35-1.64l4.18-7.29c1.61-2.79 4.81-2.07 3.34.63l-2.27 3.97c-1.82 2.92-3.63 4.33-4.9 4.33zm18.4-4.52h-.15c-.98 0-1.76.81-1.76 1.79 0 .37.12.72.29 1.01l-.03.06c-1.41 2.42-4.84 1.96-3.05-1.15l2.27-3.94 1.44-2.45c2.1-3.57 4.98-2.16 3.17.95l-2.18 3.73zm18.82 11.2c-.63 1.12-1.64.95-1.64.14 0-.78.72-1.67 2.99-2.56l-1.35 2.42zm1.38-6.68c-.66 0-1.04-.46-.35-1.64l4.18-7.29c1.61-2.79 4.81-2.07 3.34.63l-2.27 3.97c-1.81 2.92-3.63 4.33-4.9 4.33zm29.55-4.52h-.15c-.98 0-1.76.81-1.76 1.79 0 .37.12.72.29 1.01l-.03.06c-1.41 2.42-4.84 1.96-3.05-1.15l2.27-3.94 1.44-2.45c2.1-3.57 4.98-2.16 3.17.95l-2.18 3.73zm-184-3.38h28.92v1.96h-28.92zm227 0h28.92v1.96h-28.92z" fill="#766458"/><path d="M163.18 0h7.71l-1.21 44.92h-14.52l-1.98-18.54-1.98 18.54h-14.59L135.47 0h7.65l.64 37.15h.83L149.36 0h7.58l4.91 37.15h.76L163.18 0zm31.85 37.15v7.77h-20.9V0h20.9v7.7h-13.25v10.84h10.57v7.7h-10.57v10.91h13.25zm21.34 0v7.77h-18.28V0h7.65v37.15h10.63zm16.25-8.79l7.71-1.8v13.6c0 2.57-2.17 4.75-4.71 4.75h-11.47c-2.61 0-4.71-2.18-4.71-4.75V4.75c0-2.63 2.1-4.75 4.71-4.75h11.47c2.55 0 4.71 2.12 4.71 4.75v9.11l-7.71 1.8V7.7h-5.54v29.45h5.54v-8.79zM261.09 0c2.55 0 4.72 2.12 4.72 4.75v35.42c0 2.57-2.17 4.75-4.72 4.75h-11.47c-2.61 0-4.71-2.18-4.71-4.75V4.75c0-2.63 2.1-4.75 4.71-4.75h11.47zm-2.99 7.7h-5.54v29.45h5.54V7.7zM290.84 0h7.58v44.92h-7.65V22.84l-3.06 11.42h-7.45l-2.99-11.42v22.07h-7.65V0h7.58l6.82 21.69L290.84 0zm32.29 37.15v7.77h-20.9V0h20.9v7.7h-13.25v10.84h10.58v7.7h-10.58v10.91h13.25z" fill="#81b3d3"/><path class="st2" d="M44.47 157.61c-3.57-2.98-8.14-4.96-12.9-4.96-3.57 0-8.34 2.08-8.34 6.25 0 4.37 5.26 6.06 8.64 7.15l4.96 1.49c10.42 3.08 18.46 8.34 18.46 20.45 0 7.45-1.79 15.09-7.74 20.15-5.85 4.96-13.7 7.05-21.24 7.05-9.43 0-18.66-3.18-26.31-8.54l8.34-15.68c4.87 4.27 10.62 7.74 17.27 7.74 4.57 0 9.43-2.28 9.43-7.54 0-5.46-7.64-7.34-11.81-8.54-12.21-3.48-20.25-6.65-20.25-21.14 0-15.19 10.82-25.11 25.81-25.11 7.54 0 16.77 2.38 23.43 6.15l-7.75 15.08zm47.36-2.78v12.51h21.94v16.48H91.83v12.9h23.13v16.48H72.38v-74.84h42.58v16.48l-23.13-.01zm37.59-16.48h27.59c20.84 0 38.02 16.38 38.02 37.42 0 21.04-17.27 37.42-38.02 37.42h-27.59v-74.84zm19.45 58.37h4.37c11.61 0 21.54-6.35 21.54-20.94 0-13.4-8.83-20.94-21.34-20.94h-4.56v41.88zm138-22.34c0 24.22-17.37 41.29-41.39 41.29s-41.39-17.07-41.39-41.29c0-22.63 19.85-38.51 41.39-38.51s41.39 15.88 41.39 38.51zm-62.53.1c0 12.9 9.53 22.33 21.14 22.33 11.61 0 21.14-9.43 21.14-22.33 0-10.32-9.53-19.75-21.14-19.75-11.61 0-21.14 9.43-21.14 19.75zm72.9-36.13h19.45l35.64 45.76h.2v-45.76h19.45v74.84h-19.45l-35.63-45.86h-.2v45.86h-19.45v-74.84zm110.11 61.84l-5.16 13h-20.65l28.79-74.84h21.24l28.19 74.84h-20.75l-4.86-13h-26.8zm13.6-38.71h-.2l-8.04 23.82h16.18l-7.94-23.82zM108.08 287.74c7.66-2.59 8.24-12.18.69-12.18-2.08 0-4.56 1.46-6.27 4.45l-10.21 17.65c-.48.84-.95 1.53-1.46 2.15-2.63-3.61-1.86-9.01 1.82-11.38l-1.53-1.93c-7.95 5.07-5.62 19.69 7.66 19.69 11.34 0 16.6-13.6 9.3-18.45zm-9.37 15.54c-2.26 0-4.05-.51-5.47-1.31.66-.77 1.31-1.71 1.9-2.7l6.38-11.05 1.02.11c8.9 1.86 5.36 14.95-3.83 14.95zm4.08-17.29l3.06-5.25c2.77-4.78 6.31-1.97 4.41 1.6-1.45 2.74-3.6 3.58-7.47 3.65z"/><path class="st2" d="M140.16 300c-.63 2.25.57 4.08 3.15 4.08 1.53 0 3.43-.98 5.25-2.48.18 1.46 1.35 2.48 3.28 2.48 2.02 0 4.23-1.39 6.39-3.36-.42 2.05.54 3.36 2.41 3.36 2.08 0 4.41-1.9 6.24-3.65-.36 2.04.84 3.65 3.25 3.65 3.14 0 6.75-3.35 9.88-7-.02-.05-.07-.1-.1-.15 2.1-2.44 3.95-5.03 5.27-6.78-1.5 3.94-.69 11.01-4.3 11.01-1.27 0-1.79-1.39-1.79-1.39l-2.37 1.24s.69 3.06 4.16 3.06c.36 0 .69-.04 1.06-.07.04 0 .07-.04.11-.04 2.79-.37 5.55-2.06 7.94-4.23.06 2.5 1.99 4.33 5.15 4.33 4.3 0 8.57-3.35 11.71-7-.25-.51-.91-1.09-1.42-1.31l-.26.29c-2.73 3.17-6.24 5.69-8.9 5.69-2.33 0-3.72-1.46-1.97-4.52l.36-.66c2.44 1.02 7.04.55 9.88-4.38l.55-.95c2.04-3.5.07-6.13-3.03-6.13-3.06 0-5.51 1.6-7.11 4.38l-3.68 6.32c-.04-.01-.07-.04-.1-.05l-.26.29c-1.39 1.64-3.06 3.1-4.56 4.12 1.2-3.61.95-9.15 3.28-14l-2.84-1.53c-1.57 2.15-5 7.11-8.42 11.12.03.05.07.09.11.14l-.14.15c-2.73 3.17-5.4 5.69-7.08 5.69-.84 0-1.31-.58-.44-2.08l8.1-14.19h-3.79l-6.75 11.78c-2.88 2.63-5.1 4.08-5.83 3.76-.95-.4 0-1.82.48-2.63l7.4-12.91h-3.79l-6.04 10.45c-.1-.06-.2-.12-.29-.16l-.25.29c-2.73 3.17-5.4 5.69-7.08 5.69-.84 0-1.31-.58-.44-2.08l6.13-10.72h-2.15c.15-1.6-1.49-3.83-3.98-3.83-2.04 0-4.89 1.61-6.49 4.38l-3.85 6.64c-.19-.15-.39-.29-.58-.36l-.26.29c-2.73 3.17-6.24 5.69-8.9 5.69-2.33 0-3.72-1.46-1.97-4.52l3.9-6.78c2.19-3.76 6.05-3.14 3.79.8l-.55.95h3.1l.55-.95c2.04-3.5.07-6.13-3.03-6.13-3.06 0-5.51 1.61-7.11 4.38l-3.77 6.47a1.74 1.74 0 00-.35-.19l-.26.29c-2.73 3.17-6.24 5.69-8.9 5.69-2.33 0-3.72-1.46-1.97-4.52l.36-.66c2.44 1.02 7.04.55 9.88-4.38l.55-.95c2.04-3.5.07-6.13-3.03-6.13-3.06 0-5.51 1.61-7.11 4.38l-3.98 6.82c-2.37 4.05-.33 7.77 4.16 7.77 3.34 0 6.66-2.02 9.44-4.63-.1 2.65 1.87 4.63 5.14 4.63 3.13.01 6.21-1.73 8.86-4.07zm58.03-9.56c2.19-3.76 6.05-3.14 3.79.8l-.55.95c-1.82 3.1-4.27 3.03-5.69 2.52l2.45-4.27zM144 299.67l5.29-9.23c2.04-3.54 6.09-2.63 4.23.8l-2.95 5.18c-2.3 3.61-4.56 5.32-6.13 5.32-.84 0-1.32-.58-.44-2.07zm-24.19-9.23c2.19-3.76 6.05-3.14 3.79.8l-.55.95c-1.82 3.1-4.27 3.03-5.69 2.52l2.45-4.27zm128.59 13.64c4.3 0 8.57-3.35 11.71-7-.25-.51-.91-1.09-1.42-1.31l-.25.29c-2.74 3.17-6.24 5.69-8.9 5.69-2.33 0-3.72-1.46-1.97-4.52l.37-.66c2.44 1.02 7.04.55 9.88-4.38l.55-.95c2.04-3.5.07-6.13-3.03-6.13-3.06 0-5.5 1.6-7.11 4.38l-3.69 6.34c-.04-.02-.08-.05-.11-.06l-.26.29c-2.73 3.17-5.4 5.69-7.07 5.69-.84 0-1.31-.58-.44-2.08l5.47-9.59c1.64-2.88.07-4.96-2.04-4.96-1.64 0-3.39.91-5.29 2.88l6.05-10.54h-3.79l-10.7 18.56c-.15-.1-.3-.19-.43-.25l-.26.29c-2.74 3.17-5.4 5.69-7.08 5.69-.84 0-1.31-.58-.44-2.08l8.13-14.19h3.1l1.09-1.82h-3.14l3.57-6.2h-3.79l-3.57 6.2h-3.43l-1.09 1.82h3.46l-7.62 13.2c-1.6 2.81-.47 5.4 2.59 5.4 1.88 0 3.94-1.22 5.96-2.97l-1.5 2.61h3.83l5.76-10.03c5.84-7.33 8.42-6.38 6.78-3.57l-4.92 8.57c-1.6 2.81-.47 5.4 2.59 5.4 2.3 0 4.86-1.81 7.3-4.22.12 2.43 2.04 4.21 5.15 4.21zm3.06-13.64c2.19-3.76 6.06-3.14 3.79.8l-.55.95c-1.82 3.1-4.27 3.03-5.69 2.52l2.45-4.27zm111.96 5.33l-.26.29c-2.73 3.17-5.4 5.69-7.07 5.69-.84 0-1.31-.58-.44-2.08l12.84-22.21h-3.79l-5.58 9.63c-.66-1.06-1.9-1.97-3.47-1.97-2.04 0-4.89 1.6-6.49 4.38l-3.71 6.41c-.08-.05-.16-.1-.24-.13l-.26.29c-2.73 3.17-5.4 5.69-7.07 5.69-.84 0-1.31-.58-.44-2.08l5.47-9.59c1.64-2.88.07-4.96-2.04-4.96-1.64 0-3.35.88-5.25 2.85l1.42-2.48h-3.79l-6.06 10.49c-.12-.08-.25-.15-.36-.2l-.26.29c-2.73 3.17-5.4 5.69-7.07 5.69-.84 0-1.31-.58-.44-2.08l6.13-10.72h-2.15c.15-1.6-1.49-3.83-3.98-3.83-2.04 0-4.89 1.6-6.49 4.38l-3.67 6.33-.21.23c-2.73 3.17-5.4 5.69-7.07 5.69-.84 0-1.31-.58-.44-2.08l3.79-6.64c1.31-2.3.69-3.65-.55-5.14l-2.12-2.55c-.55-.69-.55-1.46.22-2.19l-1.97-2.15c-2.15 1.93-2.33 4.08-.99 5.83l.33.44c-1.68 2.37-3.94 5.58-6.42 8.5.07.11.16.21.26.32-3.13 3.59-5.78 5.92-8.76 7.19l4.81-8.24H286l-.4.66c-2.01 3.54-4.3 6.05-7.26 6.05-2.59 0-3.06-2.59-.8-6.46l1.06-1.86c.69.11 1.39.18 2.15.18 13.49 0 20.02-18.05 8.13-18.05-2.08 0-4.56 1.46-6.27 4.45l-5.91 10.17c-2.23-1.17-3.39-3.28-3.39-5.4 0-1.75.8-3.5 2.44-4.78l-1.24-2.23c-2.7 1.93-3.9 4.52-3.9 7.07 0 3.03 1.72 5.94 4.78 7.55l-1.13 1.97c-2.66 4.6-2.19 9.7 3.17 9.7 1.6 0 2.95-.47 4.12-1.2l-.99 1.71c-5.14 1.57-8.31 3.65-8.31 6.49 0 3.65 5.58 4.41 8.31-.25l2.92-5c3.94-1.24 7.81-3.94 11.96-8.75-.06-.12-.14-.24-.24-.36 1.68-1.98 3.11-3.89 5.97-7.78l.51.62c.47.62.66 1.39.22 2.15l-4.01 6.96c-1.61 2.81-.47 5.4 2.59 5.4 1.91 0 3.99-1.24 6.03-3.04-.04 1.75 1.15 3.04 3.31 3.04 1.53 0 3.43-.98 5.25-2.48.18 1.46 1.35 2.48 3.28 2.48 1.82 0 3.79-1.13 5.74-2.79l-1.4 2.42h3.83l5.8-10.1c5.8-7.26 8.39-6.31 6.75-3.5l-4.92 8.57c-1.6 2.81-.47 5.4 2.59 5.4 2.02 0 4.23-1.39 6.38-3.35-.2 1.9 1.01 3.35 3.29 3.35 1.53 0 3.43-.98 5.25-2.48.18 1.46 1.35 2.48 3.28 2.48 3.14 0 6.75-3.35 9.88-7-.24-.5-.89-1.09-1.4-1.3zm-77.96-14.16c1.13-1.93 2.37-2.77 3.43-2.77 6.02 0 1.79 12.25-8.13 12.25h-.77l5.47-9.48zm-8.06 28.6c-.8 1.42-2.08 1.2-2.08.18 0-.98.88-2.11 3.79-3.25l-1.71 3.07zm39.69-13.79c-2.3 3.61-4.56 5.32-6.13 5.32-.84 0-1.31-.58-.44-2.08l5.29-9.23c2.04-3.54 6.09-2.63 4.23.8l-2.95 5.19zm36.7-.22c-2.3 3.76-4.63 5.54-6.24 5.54-.84 0-1.31-.58-.44-2.08l5.29-9.23c2.04-3.54 6.09-2.63 4.23.8h.04l-2.88 4.97zm-117.08 35.56l-.25.29c-2.73 3.17-5.4 5.69-7.07 5.69-.84 0-1.31-.58-.44-2.08l5.47-9.59c1.64-2.88.07-4.96-2.04-4.96-1.64 0-3.35.88-5.25 2.84l1.42-2.48h-3.79l-6.11 10.57c-.17-.12-.33-.23-.48-.29l-.26.29c-1.71 1.86-3.83 2.77-5.73 2.81l3.57-6.16c2.3-3.98.18-7.73-3.39-7.73-2.92 0-5.18 1.17-7.37 4.96l-1.86 3.25-1.63 2.78c-.12-.08-.23-.15-.34-.19l-.26.29c-3.14 3.61-5.8 5.94-8.79 7.22l10.39-17.8h-3.79L192 333.14c-2.92 2.7-5.18 4.19-5.91 3.86-.95-.4 0-1.82.47-2.63l7.4-12.91h-3.79l-6.05 10.47c-.11-.07-.23-.14-.33-.19l-.25.29c-2.73 3.17-5.4 5.69-7.07 5.69-.84 0-1.31-.58-.44-2.08l5.47-9.59c1.64-2.88.07-4.96-2.04-4.96-1.64 0-3.35.88-5.25 2.84l1.42-2.48h-3.79l-6.06 10.49c-.12-.08-.25-.15-.36-.2l-.25.29c-2.73 3.17-5.4 5.69-7.08 5.69-.84 0-1.31-.58-.44-2.08l6.13-10.72h-2.15c.15-1.6-1.5-3.83-3.98-3.83-2.04 0-4.89 1.6-6.49 4.38l-3.92 6.76c-.26-.23-.56-.42-.83-.49l-.26.29c-2.73 3.17-6.09 5.69-9.85 5.69-2.59 0-4.16-2.59-1.9-6.46l1.06-1.86c.69.11 1.39.18 2.15.18 4.05 0 8.64-2.08 11.63-7.29 1.06-1.86 1.53-3.61 1.53-5.1 0-3.43-2.23-5.65-5.03-5.65-2.08 0-4.56 1.46-6.27 4.45l-5.91 10.18c-2.22-1.17-3.39-3.28-3.39-5.4 0-1.75.8-3.5 2.44-4.78l-1.24-2.23c-2.7 1.93-3.9 4.52-3.9 7.08 0 3.03 1.71 5.94 4.78 7.55l-1.13 1.97c-2.66 4.6-1.09 9.7 4.27 9.7 4.24 0 7.35-1.89 9.97-4.37-.83 2.38.37 4.37 3.06 4.37 1.53 0 3.43-.98 5.25-2.48.18 1.46 1.35 2.48 3.28 2.48 1.82 0 3.79-1.13 5.74-2.78l-1.4 2.42h3.83l5.8-10.1c5.8-7.26 8.39-6.31 6.75-3.5l-4.92 8.57c-1.6 2.81-.47 5.4 2.59 5.4 2.04 0 4.28-1.42 6.47-3.42-.46 2.09.51 3.42 2.4 3.42 1.82 0 3.9-1.53 5.62-3.06l-2.08 3.57c-5.14 1.53-8.35 3.65-8.35 6.49 0 3.65 5.58 4.41 8.31-.25l2.92-5c3.17-1 6.3-2.96 9.56-6.2-.52 5.3 6.53 6.5 10.79 1.13h.84c1.38 0 3.26-.52 4.95-1.46l-2.55 4.41h3.83l5.8-10.1c5.8-7.26 8.39-6.31 6.75-3.5l-4.92 8.57c-1.6 2.81-.48 5.4 2.59 5.4 3.14 0 6.75-3.35 9.88-7-.27-.5-.93-1.09-1.44-1.31zm-94.38-14.15c1.13-1.93 2.37-2.77 3.43-2.77 1.42 0 2.08.95 2.08 2.33 0 3.54-4.3 9.92-10.21 9.92h-.77l5.47-9.48zm13.35 14.81c-2.3 3.61-4.56 5.32-6.13 5.32-.84 0-1.31-.58-.44-2.08l5.29-9.23c2.04-3.54 6.09-2.63 4.23.8l-2.95 5.19zm28.85 13.78c-.8 1.42-2.08 1.2-2.08.18 0-.98.91-2.11 3.83-3.25l-1.75 3.07zm25.53-14.18h-.18c-1.24 0-2.23 1.02-2.23 2.26 0 .47.15.91.37 1.27l-.04.07c-1.79 3.06-6.13 2.48-3.87-1.46l2.88-5 1.82-3.1c2.66-4.52 6.31-2.73 4.01 1.2l-2.76 4.76zm114.56 1.06c-.22-.58-.88-1.17-1.42-1.31l-.26.29c-1.39 1.64-3.06 3.1-4.56 4.12 1.2-3.61.95-9.15 3.28-14l-2.85-1.53c-1.57 2.15-5 7.11-8.42 11.12.01.01.02.02.02.03-.02-.01-.03-.02-.05-.03l-.25.29c-2.74 3.17-5.4 5.69-7.08 5.69-.84 0-1.64-.84-1.64-2.55v-1.57c2.66.33 5.47-1.42 7.26-4.52l1.02-1.75c3.54-6.05-2.23-8.06-6.09-4.52l5.4-9.37h-3.79l-10.82 18.77c-.23-.19-.48-.36-.69-.46l-.26.29c-2.73 3.17-6.24 5.69-8.9 5.69-2.33 0-3.72-1.46-1.97-4.52l3.9-6.78c2.19-3.76 6.05-3.14 3.79.8l-.55.95h3.1l.55-.95c2.04-3.5.07-6.13-3.03-6.13-3.06 0-5.51 1.6-7.11 4.38l-3.73 6.4c-.08-.05-.16-.1-.23-.13l-.26.29c-2.73 3.17-5.4 5.69-7.07 5.69-.84 0-1.31-.58-.44-2.08l8.1-14.19h-3.79l-6.75 11.78c-2.88 2.63-5.1 4.08-5.84 3.76-.95-.4 0-1.82.47-2.63l7.4-12.91h-3.79l-7.37 12.74c-.82.75-1.66 1.41-2.45 1.95 1.2-3.61.95-9.15 3.28-14l-2.84-1.53c-1.57 2.15-10.32 13.75-13.75 17.76.33.47.88.95 1.42 1.31 2.15-2.48 9.37-11.78 10.72-13.57-1.5 3.94-.69 11.01-4.3 11.01-1.28 0-1.79-1.39-1.79-1.39l-2.37 1.24s.69 3.06 4.16 3.06c.37 0 .69-.04 1.06-.07.04 0 .07-.04.11-.04 1.93-.25 3.84-1.14 5.63-2.38-.01 1.54.92 2.49 2.51 2.49 2.08 0 4.41-1.9 6.23-3.65-.36 2.04.84 3.65 3.25 3.65 2.36 0 4.98-1.89 7.47-4.38.03 2.52 1.97 4.38 5.14 4.38 3.08 0 6.14-1.72 8.78-4.03l-2.11 3.67h3.83l4.34-7.55v3.03c0 3.24.62 4.89 3.68 4.89 3.14 0 6.75-3.35 9.88-7-.01-.01-.02-.02-.02-.03.02.01.03.02.05.03 2.15-2.48 4.05-5.14 5.4-6.93-1.49 3.94-.69 11.01-4.3 11.01-1.27 0-1.79-1.39-1.79-1.39l-2.37 1.24s.69 3.06 4.16 3.06c.36 0 .69-.04 1.06-.07.03 0 .07-.04.11-.04 3.87-.5 7.7-3.56 10.54-6.88zm-25.19-2.99l1.09-1.9c4.38-6.09 7.37-4.41 6.02-2.12l-1.82 3.14c-1.13 1.97-4.45 3.36-5.29.88zm25.04 5.58c-1.24 0-2.19.98-2.19 2.23 0 1.24.95 2.19 2.19 2.19s2.22-.95 2.22-2.19c.01-1.25-.98-2.23-2.22-2.23zm.19-1.5h3.83l11.88-20.71h-3.79zM80.41 277.58c0 .29-.06.59-.17.88a2.456 2.456 0 01-1.34 1.37c-.33.15-.69.22-1.1.22-.45 0-.89-.08-1.3-.25-.42-.17-.77-.41-1.06-.73-.25-.29-.44-.64-.57-1.05-.14-.41-.2-.83-.2-1.29 0-.86.15-1.65.46-2.37.3-.72.74-1.36 1.3-1.93.25-.25.53-.48.85-.69a10.186 10.186 0 011.63-.89c.2-.09.33-.15.37-.17l1.35 2c-.25.09-.52.21-.83.35-.31.15-.59.33-.86.54-.27.21-.5.47-.68.76-.18.29-.28.63-.3 1.02.65 0 1.23.19 1.73.58.47.38.72.93.72 1.65zm7.87 0c0 .29-.06.59-.17.88a2.456 2.456 0 01-1.34 1.37c-.33.15-.69.22-1.1.22-.45 0-.88-.08-1.3-.25-.42-.17-.77-.41-1.07-.73-.25-.29-.44-.64-.57-1.05-.13-.41-.2-.83-.2-1.29 0-.86.15-1.65.46-2.37.3-.72.74-1.36 1.3-1.93.25-.25.53-.48.85-.69.31-.21.61-.39.9-.54.28-.15.52-.26.73-.35.2-.09.33-.15.37-.17l1.35 2c-.25.09-.52.21-.83.35-.3.15-.59.33-.86.54-.27.21-.5.47-.68.76-.18.29-.28.63-.31 1.02.65 0 1.23.19 1.73.57.49.39.74.94.74 1.66zm265.16 58.94c0-.29.06-.59.17-.88a2.456 2.456 0 011.34-1.37c.33-.15.69-.22 1.1-.22.45 0 .89.08 1.3.25.42.17.77.41 1.06.73.25.29.44.64.58 1.05.13.41.2.83.2 1.29 0 .85-.15 1.65-.46 2.37-.31.72-.74 1.36-1.3 1.93-.25.25-.53.48-.85.69-.31.21-.61.39-.9.54-.28.15-.52.27-.73.35-.2.09-.32.15-.37.17l-1.35-2c.25-.09.52-.21.83-.35.3-.15.59-.33.86-.54.27-.21.5-.47.68-.76.18-.29.28-.63.3-1.01-.65 0-1.23-.19-1.72-.58-.49-.38-.74-.94-.74-1.66zm-7.87 0c0-.29.06-.59.17-.88a2.456 2.456 0 011.34-1.37c.33-.15.69-.22 1.1-.22.45 0 .88.08 1.3.25.42.17.77.41 1.06.73.25.29.44.64.57 1.05.14.41.2.83.2 1.29 0 .85-.15 1.65-.46 2.37-.3.72-.74 1.36-1.3 1.93-.25.25-.53.48-.85.69-.32.21-.61.39-.9.54-.28.15-.52.27-.73.35-.2.09-.33.15-.37.17l-1.36-2c.25-.09.53-.21.83-.35.3-.15.59-.33.86-.54.27-.21.5-.47.68-.76.18-.29.28-.63.3-1.01-.65 0-1.23-.19-1.73-.58-.46-.38-.71-.94-.71-1.66z"/></svg>