<?xml version="1.0" encoding="utf-8"?>
<!-- Generator: Adobe Illustrator 24.1.2, SVG Export Plug-In . SVG Version: 6.00 Build 0)  -->
<svg version="1.1" id="Layer_1" xmlns="http://www.w3.org/2000/svg" xmlns:xlink="http://www.w3.org/1999/xlink" x="0px" y="0px"
	 viewBox="0 0 76.17 68.96" style="enable-background:new 0 0 76.17 68.96;" xml:space="preserve">
<style type="text/css">
	.st0{fill:#81B3D2;}
</style>
<g>
	<path class="st0" d="M71.91,46.04H4.25C1.91,46.04,0,47.96,0,50.29v3.45C0,56.09,1.91,58,4.25,58h0.96v1.04
		c0,5.46,4.46,9.92,9.92,9.92h45.91c5.46,0,9.92-4.46,9.92-9.92V58h0.96c2.34,0,4.25-1.91,4.25-4.25v-3.45
		C76.17,47.96,74.25,46.04,71.91,46.04z M67.96,59.04c0,3.82-3.1,6.92-6.92,6.92H15.13c-3.82,0-6.92-3.1-6.92-6.92V58h59.75V59.04z
		 M73.17,53.75c0,0.68-0.57,1.25-1.25,1.25H4.25C3.57,55,3,54.43,3,53.75v-3.45c0-0.68,0.57-1.25,1.25-1.25h67.66
		c0.68,0,1.25,0.57,1.25,1.25V53.75z"/>
	<polygon class="st0" points="16.16,37.86 21.63,41.86 27.11,37.86 32.59,41.86 38.07,37.86 43.55,41.86 49.03,37.86 54.5,41.86 
		59.99,37.86 65.47,41.86 71.84,37.21 70.07,34.79 65.47,38.14 59.99,34.14 54.5,38.14 49.03,34.14 43.55,38.14 38.07,34.14 
		32.59,38.14 27.11,34.14 21.64,38.14 16.16,34.14 10.69,38.14 6.09,34.79 4.32,37.21 10.69,41.86 	"/>
	<path class="st0" d="M70.89,31.09c0.04-0.61,0.05-2.62,0.04-3C70.24,12.48,55.8,0,38.08,0C20.36,0,5.92,12.48,5.24,28.09
		c-0.02,0.38,0,2.39,0.04,3H70.89z M38.08,3c16.03,0,29.15,11.15,29.84,25.09H8.24C8.93,14.15,22.05,3,38.08,3z"/>
	<circle class="st0" cx="38.08" cy="15.04" r="2"/>
	<circle class="st0" cx="30.08" cy="10.08" r="2"/>
	<circle class="st0" cx="46.08" cy="10.08" r="2"/>
</g>
</svg>
