<svg xmlns="http://www.w3.org/2000/svg" viewBox="0 0 63 75.08"><path d="M60.17 22.23h-24.4c13.6-6.81 14.69-11.11 14.19-13.52-1.14-3.92-5.6-6.94-9.85-5.34-5.48 2.06-7.03 10.26-8.51 16.19-1.89-6-3.73-13.65-8.01-17.52-1.24-1.13-3.05-2.24-5.68-2-3.96.35-9.65 5.32-7.34 10.85 2.22 5.31 9.54 8.67 14.35 11.35H2.83A2.825 2.825 0 000 25.06v11.19c0 1.56 1.27 2.83 2.84 2.83h.27v36h56.96v-36h.1c1.56 0 2.83-1.27 2.83-2.83V25.06c0-1.55-1.28-2.83-2.83-2.83zM41.77 5.87c2.07-.31 4.91 1.28 5.18 3.17.39 2.72-3.35 5.19-5.01 6.34-2.48 1.72-4.85 2.61-7.18 4.01.87-3.64 2.51-12.85 7.01-13.52zm-22.54 9.85c-2.19-1.47-6.44-4.38-6.34-7.68.11-3.55 5.65-6.49 8.68-3.84 3.8 3.33 5.63 10.97 7.01 16.36-3.2-1.52-6.23-2.75-9.35-4.84zm5.88 56.43H6.04V39.08h19.07v33.07zm0-36.07H3V25.23h22.11v10.85zm10.01 36.07h-7.06V25.23h7.06v46.92zm22.01 0H38.05V39.08h19.07v33.07zM60 36.08H38.05V25.23H60v10.85z" fill="#81b3d2"/></svg>