<?xml version="1.0" encoding="utf-8"?>
<!-- Generator: Adobe Illustrator 24.1.2, SVG Export Plug-In . SVG Version: 6.00 Build 0)  -->
<svg version="1.1" id="Layer_1" xmlns="http://www.w3.org/2000/svg" xmlns:xlink="http://www.w3.org/1999/xlink" x="0px" y="0px"
	 viewBox="0 0 63 75.08" style="enable-background:new 0 0 63 75.08;" xml:space="preserve">
<style type="text/css">
	.st0{fill:#81B3D2;}
</style>
<path class="st0" d="M60.17,22.23h-0.1h-24.3c13.6-6.81,14.69-11.11,14.19-13.52c-1.14-3.92-5.6-6.94-9.85-5.34
	c-5.48,2.06-7.03,10.26-8.51,16.19c-1.89-6-3.73-13.65-8.01-17.52c-1.24-1.13-3.05-2.24-5.68-2c-3.96,0.35-9.65,5.32-7.34,10.85
	c2.22,5.31,9.54,8.67,14.35,11.35H2.83C1.27,22.23,0,23.51,0,25.06v11.19c0,1.56,1.27,2.83,2.84,2.83h0.27v36h56.96v-36h0.1
	c1.56,0,2.83-1.27,2.83-2.83V25.06C63,23.51,61.72,22.23,60.17,22.23z M41.77,5.87c2.07-0.31,4.91,1.28,5.18,3.17
	c0.39,2.72-3.35,5.19-5.01,6.34c-2.48,1.72-4.85,2.61-7.18,4.01C35.63,15.75,37.27,6.54,41.77,5.87z M19.23,15.72
	c-2.19-1.47-6.44-4.38-6.34-7.68C13,4.49,18.54,1.55,21.57,4.2c3.8,3.33,5.63,10.97,7.01,16.36C25.38,19.04,22.35,17.81,19.23,15.72
	z M25.11,72.15H6.04V39.08h19.07V72.15z M25.11,36.08H3V25.23h22.11V36.08z M35.12,72.15h-7.06V25.23h7.06V72.15z M57.13,72.15
	H38.05V39.08h19.07V72.15z M60,36.08H38.05V25.23H60V36.08z"/>
</svg>
