<svg version="1.1" id="Layer_1" xmlns="http://www.w3.org/2000/svg" x="0" y="0" viewBox="0 0 74.7 72.35" xml:space="preserve" width="40" height="40"><style>.st0{fill:#81b3d2}</style><path class="st0" d="M72.62 39.44l2.08-2.08-9.91-9.91V.47H50.98v13.16L37.35 0 0 37.36l2.08 2.08 7.83-7.83v37.8H5.97v2.93h63.88v-2.93h-5.06V31.6l7.83 7.84zM61.85 69.4h-49V28.67l24.5-24.5 24.5 24.5V69.4zm0-44.89l-7.93-7.94V3.41h7.93v21.1z"/><path class="st0" d="M29.51 41.4v23.94h16V41.4h-16zm13.06 21H32.44V44.34h10.13V62.4zm-5.06-42.94a7.75 7.75 0 100 15.5 7.75 7.75 0 000-15.5zm0 12.72a4.97 4.97 0 01-4.97-4.97c0-2.75 2.22-4.97 4.97-4.97a4.97 4.97 0 110 9.94zm-20.6 9.22h3v3.94h-3zm5.94 0h3v3.94h-3zm-5.94 6h3v3.94h-3zm5.94 0h3v3.94h-3zm26-6h3v3.94h-3zm5.94 0h3v3.94h-3zm-5.94 6h3v3.94h-3zm5.94 0h3v3.94h-3z"/></svg>