<?xml version="1.0" encoding="utf-8"?>
<!-- Generator: Adobe Illustrator 24.1.2, SVG Export Plug-In . SVG Version: 6.00 Build 0)  -->
<svg version="1.1" id="Layer_1" xmlns="http://www.w3.org/2000/svg" xmlns:xlink="http://www.w3.org/1999/xlink" x="0px" y="0px"
	 viewBox="0 0 74.7 72.35" style="enable-background:new 0 0 74.7 72.35;" xml:space="preserve" width="40px" height="40px">
<style type="text/css">
	.st0{fill:#81B3D2;}
</style>
<g>
	<path class="st0" d="M72.62,39.44l2.08-2.08l-9.91-9.91V0.47H50.98v13.16L37.35,0L0,37.36l2.08,2.08l7.83-7.83v37.8H5.97v2.93
		h63.88v-2.93h-5.06V31.6L72.62,39.44z M61.85,69.4h-49V28.67l24.5-24.5l24.5,24.5V69.4z M61.85,24.51l-7.93-7.94V3.41h7.93V24.51z"
		/>
	<path class="st0" d="M29.51,41.4v23.94h16V41.4H29.51z M42.57,62.4H32.44V44.34h10.13V62.4z"/>
	<path class="st0" d="M37.51,19.46c-4.28,0-7.75,3.47-7.75,7.75c0,4.28,3.47,7.75,7.75,7.75c4.28,0,7.75-3.47,7.75-7.75
		C45.26,22.93,41.79,19.46,37.51,19.46z M37.51,32.18c-2.75,0-4.97-2.23-4.97-4.97c0-2.75,2.22-4.97,4.97-4.97
		c2.74,0,4.97,2.22,4.97,4.97C42.48,29.95,40.25,32.18,37.51,32.18z"/>
	<rect x="16.91" y="41.4" class="st0" width="3" height="3.94"/>
	<rect x="22.85" y="41.4" class="st0" width="3" height="3.94"/>
	<rect x="16.91" y="47.4" class="st0" width="3" height="3.94"/>
	<rect x="22.85" y="47.4" class="st0" width="3" height="3.94"/>
	<rect x="48.85" y="41.4" class="st0" width="3" height="3.94"/>
	<rect x="54.79" y="41.4" class="st0" width="3" height="3.94"/>
	<rect x="48.85" y="47.4" class="st0" width="3" height="3.94"/>
	<rect x="54.79" y="47.4" class="st0" width="3" height="3.94"/>
</g>
</svg>
