<?xml version="1.0" encoding="utf-8"?>
<!-- Generator: Adobe Illustrator 24.1.2, SVG Export Plug-In . SVG Version: 6.00 Build 0)  -->
<svg version="1.1" id="Layer_1" xmlns="http://www.w3.org/2000/svg" xmlns:xlink="http://www.w3.org/1999/xlink" x="0px" y="0px"
	 viewBox="0 0 22 20" style="enable-background:new 0 0 22 20;" xml:space="preserve">
<style type="text/css">
	.st0{fill:#B2B2B2;}
	.st1{fill:#FFFFFF;}
</style>
<g>
	<g id="Page-1">
		<g id="Core" transform="translate(-295.000000, -464.000000)">
			<g id="thumb-up" transform="translate(295.000000, 464.000000)">
				<g id="Shape">
					<path class="st0" d="M0,20h4V8H0V20L0,20z M22,9c0-1.1-0.9-2-2-2h-6.3l1-4.6V2.1c0-0.4-0.2-0.8-0.4-1.1l-1.1-1L6.6,6.6
						C6.2,6.9,6,7.4,6,8v10c0,1.1,0.9,2,2,2h9c0.8,0,1.5-0.5,1.8-1.2l3-7.1c0.1-0.2,0.1-0.5,0.1-0.7V9H22C22,9.1,22,9,22,9L22,9z"/>
				</g>
			</g>
		</g>
	</g>
	<path class="st1" d="M12.07,4.51C10.81,5.63,8.71,6.97,8.3,7.86s-0.95,9.85-0.15,10.27s7.33,0.54,8.23,0.02
		c0.9-0.52,3.05-6.84,3.36-7.6s0.36-1.43,0.01-1.81s-7.96,0.53-8.49-0.01S11.8,5.92,12.07,4.51z"/>
</g>
</svg>
