<svg version="1.1" id="Layer_1" xmlns="http://www.w3.org/2000/svg" x="0" y="0" viewBox="0 0 76.17 68.96" xml:space="preserve"><style>.st0{fill:#81b3d2}</style><path class="st0" d="M71.91 46.04H4.25C1.91 46.04 0 47.96 0 50.29v3.45C0 56.09 1.91 58 4.25 58h.96v1.04c0 5.46 4.46 9.92 9.92 9.92h45.91c5.46 0 9.92-4.46 9.92-9.92V58h.96a4.26 4.26 0 004.25-4.25V50.3c0-2.34-1.92-4.26-4.26-4.26zm-3.95 13c0 3.82-3.1 6.92-6.92 6.92H15.13c-3.82 0-6.92-3.1-6.92-6.92V58h59.75v1.04zm5.21-5.29c0 .68-.57 1.25-1.25 1.25H4.25C3.57 55 3 54.43 3 53.75V50.3c0-.68.57-1.25 1.25-1.25h67.66c.68 0 1.25.57 1.25 1.25v3.45zM16.16 37.86l5.47 4 5.48-4 5.48 4 5.48-4 5.48 4 5.48-4 5.47 4 5.49-4 5.48 4 6.37-4.65-1.77-2.42-4.6 3.35-5.48-4-5.49 4-5.47-4-5.48 4-5.48-4-5.48 4-5.48-4-5.47 4-5.48-4-5.47 4-4.6-3.35-1.77 2.42 6.37 4.65zm54.73-6.77c.04-.61.05-2.62.04-3C70.24 12.48 55.8 0 38.08 0S5.92 12.48 5.24 28.09c-.02.38 0 2.39.04 3h65.61zM38.08 3c16.03 0 29.15 11.15 29.84 25.09H8.24C8.93 14.15 22.05 3 38.08 3z"/><circle class="st0" cx="38.08" cy="15.04" r="2"/><circle class="st0" cx="30.08" cy="10.08" r="2"/><circle class="st0" cx="46.08" cy="10.08" r="2"/></svg>