<svg xmlns="http://www.w3.org/2000/svg" xmlns:xlink="http://www.w3.org/1999/xlink"><symbol id="icon-check" viewBox="0 0 23.05 16.25"><path d="M22.8 1.3L21.75.25a.851.851 0 00-1.2 0L8.69 12.1 2.5 5.91a.851.851 0 00-1.2 0L.25 6.96c-.33.33-.33.87 0 1.2L8.09 16c.17.17.39.25.61.25.22 0 .44-.08.61-.25L22.8 2.5c.33-.33.33-.87 0-1.2z"/></symbol><symbol id="icon-fb" viewBox="0 0 8.67 18.94"><path d="M6.28 3.36h2.4V0H5.79C2.66.18 1.54 2.39 1.95 6.11H0v3.52h1.96v9.31H5.8V9.63h2.86V6.11H5.79c-.02-1.04-.04-2.4.49-2.75z"/></symbol><symbol id="icon-fullscreen" viewBox="0 0 20 20"><path d="M0 0v6h3V3h3V0H3zm3 14H0v6h6v-3H3zM17 0h-3v3h3v3h3V0zm0 17h-3v3h6v-6h-3z"/></symbol><symbol id="icon-html" viewBox="0 0 154.38 195.33"><path d="M78 .59L77.19.5.5 8.54v140.57l76.69 45.63 76.69-45.63V8.54L78 .59zm65.85 142.82l-66.66 39.66-66.66-39.66V85.79L76.9 125.3l.11 7.16-45.53-27.1-.07 6.95 45.71 27.47.11 7.35-45.7-27.19-.07 6.95 45.71 27.47 46.15-27.62v-6.98l-.06.03V97.1l20.57-12.28v58.59zm-.05-66.06l-18.24 10.74-8.42 4.96-40.15-23.88-.07 6.95 34.32 20.41-.3.18-.74.44-4.88 2.87-28.33-16.86-.07 6.95 22.36 13.3-5.28 3.53-.13.08-16.89-9.95-.07 6.95 11.08 6.53-11.29 6.78-66.02-39.27 66.14-39.75v.01l66.98 39.03zm.05-6.99L76.83 30.85v-.01h-.02v.01L10.53 70.31V17.58l66.66-6.99 66.66 6.99v52.78z" stroke="#231f20" stroke-miterlimit="10"/></symbol><symbol id="icon-like" viewBox="0 0 22 20"><path d="M0 20h4V8H0v12zM22 9c0-1.1-.9-2-2-2h-6.3l1-4.6v-.3c0-.4-.2-.8-.4-1.1l-1.1-1-6.6 6.6c-.4.3-.6.8-.6 1.4v10c0 1.1.9 2 2 2h9c.8 0 1.5-.5 1.8-1.2l3-7.1c.1-.2.1-.5.1-.7V9h.1c0 .1 0 0 0 0z" fill="#b2b2b2"/><path d="M12.07 4.51C10.81 5.63 8.71 6.97 8.3 7.86s-.95 9.85-.15 10.27 7.33.54 8.23.02c.9-.52 3.05-6.84 3.36-7.6s.36-1.43.01-1.81-7.96.53-8.49-.01.54-2.81.81-4.22z" fill="#fff"/></symbol><symbol id="icon-mail" viewBox="0 2 16 12"><path d="M8 10c-.27 0-.5-.09-1-.34L0 6v7c0 .55.45 1 1 1h14c.55 0 1-.45 1-1V6L9 9.66c-.5.25-.73.34-1 .34zm7-8H1c-.55 0-1 .45-1 1v.76l8 4.21 8-4.21V3c0-.55-.45-1-1-1z"/></symbol><symbol id="icon-phone"><path d="M3.6 7.8c1.4 2.8 3.8 5.1 6.6 6.6l2.2-2.2c.3-.3.7-.4 1-.2 1.1.4 2.3.6 3.6.6.6 0 1 .4 1 1V17c0 .6-.4 1-1 1C7.6 18 0 10.4 0 1c0-.6.4-1 1-1h3.5c.6 0 1 .4 1 1 0 1.2.2 2.4.6 3.6.1.3 0 .7-.2 1L3.6 7.8z" fill="#010101"/></symbol><symbol id="icon-replay" viewBox="0 0 16 20"><path d="M8 4V0L3 5l5 5V6c3.31 0 6 2.69 6 6s-2.69 6-6 6c-3.32 0-6-2.69-6-6H0c0 4.42 3.58 8 8 8s8-3.58 8-8-3.58-8-8-8z"/></symbol><symbol id="icon-subtitles" viewBox="0 0 32 20"><path d="M29 0H3C1.35 0 0 1.35 0 3v14c0 1.65 1.35 3 3 3h26c1.65 0 3-1.35 3-3V3c0-1.65-1.35-3-3-3zM14.4 15.85c-.54.11-1.1.16-1.68.16-.69 0-1.35-.11-1.98-.32-.62-.21-1.17-.56-1.65-1.04s-.85-1.1-1.13-1.87c-.28-.77-.42-1.7-.42-2.79 0-1.13.16-2.09.47-2.85.33-.76.73-1.37 1.24-1.84.5-.47 1.06-.8 1.68-1.01.62-.2 1.23-.31 1.85-.31.66 0 1.22.04 1.68.13.46.09.84.19 1.13.31l-.45 1.92c-.25-.12-.55-.21-.9-.26A9.04 9.04 0 0012.97 6c-.92 0-1.65.33-2.21.98-.56.65-.84 1.66-.84 3.03 0 .6.07 1.14.2 1.63s.33.91.6 1.26c.27.35.61.62 1.01.81.4.19.87.29 1.4.29.5 0 .91-.05 1.26-.15.34-.1.64-.23.89-.38l.46 1.84c-.34.25-.79.44-1.34.54zm8.7 0c-.54.11-1.11.16-1.68.16-.69 0-1.35-.11-1.98-.32a4.24 4.24 0 01-1.65-1.04c-.47-.48-.85-1.1-1.13-1.87-.28-.77-.42-1.7-.42-2.79 0-1.13.16-2.09.47-2.85.31-.77.72-1.38 1.22-1.85.5-.47 1.06-.8 1.68-1.01.62-.2 1.23-.31 1.85-.31.66 0 1.22.04 1.68.13.46.09.84.19 1.13.31l-.45 1.92c-.25-.12-.55-.21-.9-.26-.33-.04-.75-.07-1.25-.07-.91 0-1.65.33-2.21.98-.56.65-.84 1.66-.84 3.03 0 .6.07 1.14.2 1.63s.33.91.6 1.26c.27.35.61.62 1.01.81.4.19.87.29 1.4.29.5 0 .92-.05 1.26-.15.34-.1.64-.23.89-.38l.46 1.84c-.34.25-.79.44-1.34.54z"/></symbol><symbol id="icon-tw" viewBox="0 0 17.5 14.66"><path d="M11.28.15c1.74-.48 3.07.26 3.68 1.15.69-.23 1.37-.47 2.07-.69 0 .84-.54 1.48-.88 1.73.7.16 1.34-.48 1.34-.48-.17.98-1.04 1.75-1.61 1.98-.24 6.59-3.27 10.96-10.38 10.82h-.46c-.42 0-4.29-.45-5.05-1.84 2.34.19 4.01-.41 4.84-1.15-.99-.29-2.76-.46-3.07-2.88.36.1.58.22 1.23.12C1.76 8.07.38 7.37.46 5.22c.29.32 1.1.52 1.38.46C1.12 5.44-.19 2.4.92.84c1.87 1.81 3.85 3.52 7.37 3.69C8.51 2.29 9.46.79 11.28.15z"/></symbol><symbol id="icon-youtube" viewBox="0 0 19.98 14.02"><path d="M17.14 0H2.84C1.27 0 0 1.28 0 2.83v8.35c0 1.56 1.27 2.83 2.84 2.83h14.31a2.84 2.84 0 002.83-2.83V2.83C19.98 1.28 18.7 0 17.14 0zM7.04 10.39V3.62L13.81 7l-6.77 3.39z"/></symbol></svg>